<svg width="21" height="20" viewBox="0 0 21 20" fill="none" xmlns="http://www.w3.org/2000/svg">
<path id="Vector" d="M10.8799 -0.000244141C8.90207 -0.000244141 6.96868 0.586246 5.32418 1.68506C3.67969 2.78387 2.39797 4.34566 1.64109 6.17292C0.884216 8.00018 0.686182 10.0108 1.07203 11.9507C1.45789 13.8905 2.41029 15.6723 3.80882 17.0708C5.20734 18.4693 6.98917 19.4218 8.92898 19.8076C10.8688 20.1935 12.8795 19.9954 14.7067 19.2386C16.534 18.4817 18.0958 17.1999 19.1946 15.5555C20.2934 13.911 20.8799 11.9776 20.8799 9.99976C20.8799 8.68654 20.6212 7.38618 20.1187 6.17292C19.6161 4.95967 18.8795 3.85727 17.951 2.92869C17.0224 2.0001 15.92 1.26351 14.7067 0.760961C13.4935 0.258414 12.1931 -0.000244141 10.8799 -0.000244141ZM10.8799 1.99976C12.9346 1.99894 14.9097 2.79469 16.3899 4.21976C14.8619 5.11596 13.2428 5.84675 11.5599 6.39976C10.7224 4.95658 9.76216 3.5882 8.68989 2.30976C9.40185 2.10475 10.139 2.00041 10.8799 1.99976ZM6.76989 3.14976C7.81757 4.34826 8.75786 5.63655 9.57989 6.99976C7.61699 7.48716 5.60239 7.73563 3.57989 7.73976H3.21989C3.78709 5.8194 5.05382 4.18156 6.76989 3.14976ZM4.87989 15.3098C3.57864 13.8485 2.86597 11.9564 2.87989 9.99976C2.87989 9.89976 2.87989 9.79976 2.87989 9.70976H3.55989C5.92726 9.68859 8.28128 9.3523 10.5599 8.70976C10.8799 9.31976 11.1799 9.94976 11.4699 10.5998C9.91138 11.1492 8.4599 11.9646 7.17989 13.0098L6.87989 13.2498C6.16701 13.89 5.49878 14.5783 4.87989 15.3098ZM10.8799 17.9998C9.28598 18.0033 7.72808 17.5258 6.40989 16.6298C6.89673 16.0713 7.41773 15.5437 7.96989 15.0498L8.28989 14.7798C9.47305 13.7847 10.8289 13.0152 12.2899 12.5098C12.8912 14.1357 13.3594 15.8079 13.6899 17.5098C12.7897 17.8384 11.8382 18.0044 10.8799 17.9998ZM15.5099 16.5098C15.1827 14.9963 14.7551 13.5064 14.2299 12.0498H14.5699C14.6093 12.04 14.6505 12.04 14.6899 12.0498H14.7999H14.8999H15.3799C16.4322 12.0528 17.4767 12.2319 18.4699 12.5798C17.9242 14.1701 16.8878 15.5462 15.5099 16.5098ZM15.3799 9.99976C15.1699 9.99976 14.9599 9.99976 14.7599 9.99976C14.6304 9.98344 14.4994 9.98344 14.3699 9.99976C14.0981 10.0164 13.8276 10.0498 13.5599 10.0998H13.4599C13.1699 9.42976 12.8699 8.77976 12.5399 8.09976C14.3305 7.48481 16.0503 6.68024 17.6699 5.69976C18.4733 6.98912 18.893 8.48061 18.8799 9.99976C18.8799 10.1698 18.8799 10.3398 18.8799 10.5098C17.7466 10.16 16.5659 9.98793 15.3799 9.99976Z" fill="black"/>
</svg>
