<svg width="20" height="20" viewBox="0 0 20 20" fill="none" xmlns="http://www.w3.org/2000/svg">
<path d="M10 -0.000244141C7.6255 -0.000145675 5.32849 0.84487 3.51999 2.3836C1.71149 3.92234 0.509528 6.05438 0.12916 8.39824C-0.251207 10.7421 0.214845 13.1448 1.44393 15.1765C2.67301 17.2082 4.58491 18.7362 6.83755 19.4872C7.33755 19.5748 7.52505 19.2748 7.52505 19.0122C7.52505 18.7748 7.51254 17.9872 7.51254 17.1498C5.00003 17.6122 4.35003 16.5373 4.15003 15.9748C3.9281 15.4277 3.5763 14.9429 3.12503 14.5623C2.77503 14.3748 2.27503 13.9123 3.11252 13.8998C3.4323 13.9345 3.73901 14.0458 4.00666 14.2242C4.2743 14.4026 4.49499 14.6429 4.65003 14.9247C4.7868 15.1704 4.97071 15.3867 5.19122 15.5612C5.41173 15.7357 5.6645 15.865 5.93506 15.9417C6.20562 16.0183 6.48864 16.0408 6.76791 16.0079C7.04717 15.9749 7.3172 15.8872 7.56251 15.7497C7.6058 15.2414 7.83237 14.766 8.20003 14.4123C5.97503 14.1623 3.65003 13.2997 3.65003 9.47479C3.63597 8.48093 4.00271 7.51936 4.67503 6.78729C4.36931 5.92351 4.40508 4.97557 4.77503 4.13729C4.77503 4.13729 5.6125 3.87478 7.52503 5.16229C9.16131 4.71226 10.8887 4.71226 12.525 5.16229C14.4375 3.86229 15.275 4.13729 15.275 4.13729C15.645 4.97556 15.6808 5.92351 15.375 6.78729C16.0494 7.51811 16.4164 8.48052 16.4 9.47479C16.4 13.3123 14.0625 14.1623 11.8375 14.4123C12.0762 14.6542 12.26 14.9446 12.3764 15.2638C12.4929 15.583 12.5393 15.9235 12.5125 16.2623C12.5125 17.5998 12.5 18.6748 12.5 19.0123C12.5 19.2748 12.6875 19.5873 13.1875 19.4873C15.4362 18.7302 17.3426 17.1985 18.5664 15.1658C19.7903 13.1331 20.2519 10.7316 19.8689 8.38999C19.4859 6.0484 18.2832 3.91913 16.4755 2.38227C14.6678 0.845406 12.3727 0.000990767 10 -0.000244141Z" fill="black"/>
</svg>
