<svg width="20" height="20" viewBox="0 0 20 20" fill="none" xmlns="http://www.w3.org/2000/svg">
<path d="M18.41 -0.00010431H1.47C1.27958 -0.00274893 1.0905 0.0321432 0.913566 0.102579C0.73663 0.173016 0.575303 0.277616 0.438797 0.410408C0.302292 0.543199 0.193281 0.70158 0.117992 0.876505C0.0427024 1.05143 0.00260839 1.23947 0 1.4299V18.5699C0.00260839 18.7603 0.0427024 18.9484 0.117992 19.1233C0.193281 19.2982 0.302292 19.4566 0.438797 19.5894C0.575303 19.7222 0.73663 19.8268 0.913566 19.8972C1.0905 19.9676 1.27958 20.0025 1.47 19.9999H18.41C18.6004 20.0025 18.7895 19.9676 18.9664 19.8972C19.1434 19.8268 19.3047 19.7222 19.4412 19.5894C19.5777 19.4566 19.6867 19.2982 19.762 19.1233C19.8373 18.9484 19.8774 18.7603 19.88 18.5699V1.4299C19.8774 1.23947 19.8373 1.05143 19.762 0.876505C19.6867 0.70158 19.5777 0.543199 19.4412 0.410408C19.3047 0.277616 19.1434 0.173016 18.9664 0.102579C18.7895 0.0321432 18.6004 -0.00274893 18.41 -0.00010431ZM6.03 16.7399H3.03V7.7399H6.03V16.7399ZM4.53 6.4799C4.11626 6.4799 3.71947 6.31554 3.42691 6.02298C3.13436 5.73043 2.97 5.33363 2.97 4.9199C2.97 4.50616 3.13436 4.10937 3.42691 3.81681C3.71947 3.52425 4.11626 3.3599 4.53 3.3599C4.7497 3.33498 4.97218 3.35675 5.18288 3.42378C5.39357 3.49081 5.58774 3.60159 5.75266 3.74886C5.91757 3.89613 6.04953 4.07657 6.13987 4.27838C6.23022 4.48018 6.27692 4.69879 6.27692 4.9199C6.27692 5.141 6.23022 5.35961 6.13987 5.56141C6.04953 5.76322 5.91757 5.94366 5.75266 6.09093C5.58774 6.23821 5.39357 6.34898 5.18288 6.41601C4.97218 6.48304 4.7497 6.50481 4.53 6.4799ZM16.85 16.7399H13.85V11.9099C13.85 10.6999 13.42 9.9099 12.33 9.9099C11.9927 9.91237 11.6642 10.0182 11.3888 10.2131C11.1135 10.408 10.9045 10.6826 10.79 10.9999C10.7117 11.2349 10.6778 11.4825 10.69 11.7299V16.7299H7.69C7.69 16.7299 7.69 8.5499 7.69 7.7299H10.69V8.9999C10.9625 8.527 11.3589 8.13741 11.8364 7.8731C12.314 7.60878 12.8546 7.47975 13.4 7.4999C15.4 7.4999 16.85 8.7899 16.85 11.5599V16.7399Z" fill="black"/>
</svg>
