<svg width="25" height="25" viewBox="0 0 25 25" fill="none" xmlns="http://www.w3.org/2000/svg">
<path d="M19.7278 11.3906H5.72778C4.62321 11.3906 3.72778 12.2861 3.72778 13.3906V20.3906C3.72778 21.4952 4.62321 22.3906 5.72778 22.3906H19.7278C20.8324 22.3906 21.7278 21.4952 21.7278 20.3906V13.3906C21.7278 12.2861 20.8324 11.3906 19.7278 11.3906Z" stroke="white" stroke-width="2" stroke-linecap="round" stroke-linejoin="round"/>
<path d="M7.72778 11.3906V7.39062C7.72778 6.06454 8.25457 4.79277 9.19225 3.85509C10.1299 2.91741 11.4017 2.39063 12.7278 2.39062C14.0539 2.39062 15.3256 2.91741 16.2633 3.85509C17.201 4.79277 17.7278 6.06454 17.7278 7.39062V11.3906" stroke="white" stroke-width="2" stroke-linecap="round" stroke-linejoin="round"/>
</svg>
